<svg id="Layer_1" enable-background="new 0 0 512 512" height="512" viewBox="0 0 512 512" width="512" xmlns="http://www.w3.org/2000/svg"><g><g><path d="m37.5 293.269c-4.142 0-7.5 3.358-7.5 7.5v114.231c0 6.341 5.159 11.5 11.5 11.5h310.68c4.142 0 7.5-3.358 7.5-7.5s-3.358-7.5-7.5-7.5h-307.18v-110.731c0-4.142-3.358-7.5-7.5-7.5z"/><path d="m383.769 426.5h86.731c6.341 0 11.5-5.159 11.5-11.5v-156c0-6.341-5.159-11.5-11.5-11.5h-429c-6.341 0-11.5 5.159-11.5 11.5v10c0 4.142 3.358 7.5 7.5 7.5s7.5-3.358 7.5-7.5v-6.5h422v149h-83.231c-4.142 0-7.5 3.358-7.5 7.5s3.358 7.5 7.5 7.5z"/><path d="m485.5 217.5h-9.115c-4.142 0-7.5 3.358-7.5 7.5s3.358 7.5 7.5 7.5h9.115c6.341 0 11.5 5.159 11.5 11.5v186c0 6.341-5.159 11.5-11.5 11.5h-459c-6.341 0-11.5-5.159-11.5-11.5v-186c0-6.341 5.159-11.5 11.5-11.5h66.396.009.006 326.177.006.009 24.405c4.142 0 7.5-3.358 7.5-7.5s-3.358-7.5-7.5-7.5h-21.833l-128.074-99.725c3.121-5.911 4.898-12.638 4.898-19.775 0-23.435-19.065-42.5-42.5-42.5s-42.499 19.065-42.499 42.5c0 7.137 1.776 13.864 4.898 19.775l-128.074 99.725h-63.824c-14.612 0-26.5 11.888-26.5 26.5v186c0 14.612 11.888 26.5 26.5 26.5h459c14.612 0 26.5-11.888 26.5-26.5v-186c0-14.612-11.888-26.5-26.5-26.5zm-229.5-147c15.164 0 27.5 12.336 27.5 27.5s-12.336 27.5-27.5 27.5-27.5-12.336-27.5-27.5 12.336-27.5 27.5-27.5zm-28.379 59.104c7.53 6.769 17.48 10.896 28.379 10.896s20.848-4.127 28.379-10.896l112.882 87.896h-282.522z"/><path d="m153.478 299.961c-4.142 0-7.5 3.358-7.5 7.5v58.028c0 3.654 2.633 6.776 6.234 7.393.542.093.938.161 7.338.161 3.113 0 7.646-.016 14.306-.053 4.142-.023 7.481-3.4 7.458-7.542s-3.402-7.523-7.542-7.458c-3.911.022-8.825.042-12.794.047v-50.575c0-4.143-3.358-7.501-7.5-7.501z"/><path d="m381.306 365.539c0-4.142-3.358-7.5-7.5-7.5h-16.748v-13.773h14.96c4.142 0 7.5-3.358 7.5-7.5s-3.358-7.5-7.5-7.5h-14.96v-13.773h16.748c4.142 0 7.5-3.358 7.5-7.5s-3.358-7.5-7.5-7.5h-24.248c-4.142 0-7.5 3.358-7.5 7.5v57.547c0 4.142 3.358 7.5 7.5 7.5h24.248c4.142-.001 7.5-3.359 7.5-7.501z"/><path d="m390.86 364.623c0 .49.051.968.14 1.432.125 1.81.895 3.52 2.19 4.806 1.405 1.395 3.305 2.177 5.284 2.177h.029c.482-.002 11.866-.046 16.417-.125 17.187-.301 29.661-15.254 29.661-35.555 0-21.341-12.16-35.68-30.259-35.68h-15.962c-1.992 0-3.901.792-5.308 2.202s-2.196 3.321-2.192 5.313v.043.002zm23.462-47.944c14.159 0 15.259 15.829 15.259 20.68 0 10.102-4.615 20.376-14.923 20.557-2.01.035-5.488.063-8.709.084-.021-6.636-.048-15.971-.048-20.703 0-3.96-.015-13.71-.027-20.618z"/><path d="m103.958 314.961c4.317 0 8.479 1.271 12.037 3.674 3.433 2.318 8.095 1.416 10.414-2.016 2.319-3.433 1.416-8.095-2.016-10.414-6.047-4.085-13.113-6.245-20.434-6.245-20.147 0-36.539 16.391-36.539 36.539s16.391 36.539 36.539 36.539c8.059 0 15.294-2.65 20.924-7.665 1.104-.983 2.153-2.064 3.117-3.215 2.661-3.174 2.245-7.905-.929-10.566-3.174-2.662-7.905-2.246-10.566.929-.498.594-1.035 1.148-1.598 1.649-2.881 2.566-6.564 3.867-10.949 3.867-11.876 0-21.539-9.662-21.539-21.539s9.662-21.537 21.539-21.537z"/><path d="m301.475 358.039c-5.706 0-11.194-2.297-14.681-6.145-2.781-3.069-7.523-3.303-10.594-.521-3.069 2.782-3.302 7.525-.521 10.594 6.377 7.037 15.78 11.072 25.796 11.072 12.356 0 22.733-7.894 24.675-18.769 1.463-8.193-2.244-18.892-17.036-24.348-7.093-2.616-13.699-5.465-15.77-6.371-1.46-1.194-1.41-2.847-1.311-3.538.141-.979.856-3.374 4.451-4.457 8.056-2.426 15.552 3.484 15.762 3.651 3.17 2.628 7.873 2.208 10.526-.949 2.665-3.17 2.255-7.902-.916-10.567-.552-.464-13.707-11.315-29.699-6.498-8.108 2.442-13.845 8.837-14.972 16.688-1.059 7.372 2.138 14.464 8.34 18.508.332.216.679.405 1.04.566.336.15 8.342 3.714 17.357 7.039 1.942.716 8.22 3.384 7.461 7.639-.562 3.149-4.422 6.406-9.908 6.406z"/><path d="m263.473 336.5c0-20.147-16.391-36.539-36.539-36.539-20.147 0-36.538 16.391-36.538 36.539s16.391 36.539 36.538 36.539c20.148 0 36.539-16.392 36.539-36.539zm-58.077 0c0-11.876 9.662-21.539 21.538-21.539s21.539 9.662 21.539 21.539-9.662 21.539-21.539 21.539c-11.876 0-21.538-9.663-21.538-21.539z"/></g></g></svg>