<svg id="Layer_1" height="512" viewBox="0 0 512 512" width="512" xmlns="http://www.w3.org/2000/svg" data-name="Layer 1"><path d="m202.24 255.44v.35l.03 45.7h106.34l.01-45.69v-.37z" fill="#88ced8"/><path d="m202.24 255.44v.35l.03 45.7h21l-.03-45.7v-.35l85.38-.008v-.002z" fill="#cafffe"/><path d="m383.54 339.25-254.96.17v156.37h254.86.12v-156.54z" fill="#88ced8"/><path d="m384.05 300.42h-19.97a1.394 1.394 0 0 1 -1.42-1.36v-15.21a1.388 1.388 0 0 0 -1.42-1.36h-17.78a1.386 1.386 0 0 0 -1.41 1.36v15.21a1.394 1.394 0 0 1 -1.42 1.36h-16.55a1.388 1.388 0 0 1 -1.42-1.36v-15.21a1.394 1.394 0 0 0 -1.42-1.36h-17.6a1.394 1.394 0 0 0 -1.42 1.36v15.21a1.388 1.388 0 0 1 -1.42 1.36h-15.17a1.394 1.394 0 0 1 -1.42-1.36v-13.97a2.3 2.3 0 0 0 -2.31-2.31h-13.92a2.3 2.3 0 0 0 -2.31 2.31l.05 15.06a1.379 1.379 0 0 1 -1.41 1.36h-15.49a1.386 1.386 0 0 1 -1.41-1.36v-16.3a1.394 1.394 0 0 0 -1.42-1.36h-16.67a1.394 1.394 0 0 0 -1.42 1.36v15.21a1.386 1.386 0 0 1 -1.41 1.36h-15.17a1.388 1.388 0 0 1 -1.42-1.36v-15.21a1.394 1.394 0 0 0 -1.42-1.36h-19.02a1.388 1.388 0 0 0 -1.42 1.36v15.21a1.394 1.394 0 0 1 -1.42 1.36h-15.84a1.394 1.394 0 0 1 -1.42-1.36v-15.21a1.388 1.388 0 0 0 -1.42-1.36h-17.07a1.386 1.386 0 0 0 -1.41 1.36v15.21a1.394 1.394 0 0 1 -1.42 1.36h-20l.54 39 254.96-.17h.02z" fill="#f9677f"/><path d="m148.58 339.407-20 .013v156.37h20v-156.37z" fill="#cafffe"/><path d="m148.04 300.42h-19.63-.37l.54 39 20-.013z" fill="#ff97a1"/><path d="m297.38 379.42a59.6 59.6 0 0 0 -41.37-16.45c-32.31 0-58.51 25.14-58.51 56.15l-.02 76.54v.13h117.04v-76.67a54.859 54.859 0 0 0 -17.14-39.7z" fill="#fb6771"/><path d="m412.3 181.27v72.15h44.61v-72.15z" fill="#88ced8"/><path d="m233.02 123.27h44.6v80.97h-44.6z" fill="#88ced8"/><path d="m55.3 181.27v72.15h44.61v-72.15z" fill="#88ced8"/><path d="m478.43 76.42-15.68 12.92a2.432 2.432 0 0 0 -.89 1.83v.03a2.435 2.435 0 0 0 .86 1.87l14.8 12.52-41.21.12h-.05v-29.32h.05z" fill="#50dd5a"/><path d="m460.02 162.93v.34h-50.01v-.08l25.94-36.13z" fill="#fb6771"/><path d="m298.81 18.42-15.68 12.92a2.466 2.466 0 0 0 -.89 1.83v.03a2.469 2.469 0 0 0 .86 1.87l14.8 12.52-41.21.12h-.05v-29.32h.05z" fill="#50dd5a"/><path d="m298.1 417.75v1.33h-.02l-42.15-.06.15-39.67a43.946 43.946 0 0 1 29.71 11.25 36.654 36.654 0 0 1 12.31 27.15z" fill="#c79a83"/><path d="m298.1 419.08-.04 45.15-42.29-.21.16-45 42.15.06z" fill="#dba993"/><path d="m298.06 464.23-.02 31.56h-42.39l.12-31.77z" fill="#c79a83"/><path d="m256.64 69.1.03-.04 24.06 35.87v.34h-50v-.08z" fill="#fb6771"/><path d="m256.08 379.35-.15 39.67-41.78-.05h-.09v-1.22c0-21.21 18.82-38.4 42.02-38.4z" fill="#dba993"/><path d="m255.93 419.02-.16 45-41.7-.2-.01-44.85h.09z" fill="#c79a83"/><path d="m255.77 464.02-.12 31.77h-41.57v-.05l-.01-31.92z" fill="#dba993"/><path d="m121.43 76.42-15.68 12.92a2.432 2.432 0 0 0 -.89 1.83v.03a2.435 2.435 0 0 0 .86 1.87l14.8 12.52-41.21.12h-.05v-29.32h.05z" fill="#50dd5a"/><path d="m103.02 162.93v.34h-50.01v-.08l25.94-36.13z" fill="#fb6771"/><path d="m402.8 163.27h64.96v18h-64.96z" fill="#a0eaea"/><path d="m223.52 105.27h64.96v18h-64.96z" fill="#a0eaea"/><path d="m45.8 163.27h64.96v18h-64.96z" fill="#a0eaea"/><path d="m128.58 470.58v25.21h-99.53v-25.51l98.95.3z" fill="#fb6771"/><path d="m29.05 316.1v154.18l98.95.3h.58v-154.48z" fill="#a0eaea"/><path d="m128.58 383.59v15.76h-17.23a1.4 1.4 0 0 1 -1.42-1.37v-13.03a1.394 1.394 0 0 1 1.42-1.36z" fill="#80d6d3"/><path d="m78.03 427.62h22.73v15.75h-22.73z" fill="#80d6d3"/><path d="m63.14 334.95h22.74v15.76h-22.74z" fill="#80d6d3"/><path d="m47.59 380.15v13.03a1.394 1.394 0 0 1 -1.42 1.36h-17.12v-15.75h17.12a1.394 1.394 0 0 1 1.42 1.36z" fill="#80d6d3"/><path d="m483.09 470.49v25.3h-99.53v-25.28h.44z" fill="#fb6771"/><path d="m383.56 315.1v155.41h.44l99.09-.02v-155.39z" fill="#a0eaea"/><path d="m483.09 390.83v15.76l-17.22-.01a1.394 1.394 0 0 1 -1.42-1.36v-13.03a1.394 1.394 0 0 1 1.42-1.36z" fill="#80d6d3"/><path d="m432.55 434.86h22.73v15.75h-22.73z" fill="#80d6d3"/><path d="m417.66 334h22.73v15.75h-22.73z" fill="#80d6d3"/><path d="m402.11 384.38v14.03a1.388 1.388 0 0 1 -1.42 1.36h-17.13v-16.75h17.13a1.394 1.394 0 0 1 1.42 1.36z" fill="#80d6d3"/><path d="m55.3 181.27h24v72.063h-24z" fill="#c0f9f6"/><path d="m77.01 163.27v-.08l13.535-18.851-11.595-17.279-25.94 36.13v.08h16.79z" fill="#ff97a1"/><path d="m45.8 163.27h24v18h-24z" fill="#cafffe"/><path d="m29.05 470.28v25.51h24v-25.437z" fill="#ff97a1"/><path d="m29.05 316.1v154.18l24 .073v-.073-154.18z" fill="#cafffe"/><path d="m138.74 253.42h-9.48a1.394 1.394 0 0 1 -1.42-1.36v-15.81a1.388 1.388 0 0 0 -1.42-1.36h-17.39a1.388 1.388 0 0 0 -1.42 1.36v15.81a1.394 1.394 0 0 1 -1.42 1.36h-17.8a1.394 1.394 0 0 1 -1.42-1.36v-15.81a1.388 1.388 0 0 0 -1.42-1.36h-17.54a1.394 1.394 0 0 0 -1.42 1.36v15.81a1.386 1.386 0 0 1 -1.41 1.36h-17.14a1.394 1.394 0 0 1 -1.42-1.36v-15.81a1.388 1.388 0 0 0 -1.42-1.36h-16.46a1.388 1.388 0 0 0 -1.42 1.36v15.81a1.394 1.394 0 0 1 -1.42 1.36h-8.48a1.388 1.388 0 0 0 -1.42 1.36v61.32h124l.16-61.32a1.394 1.394 0 0 0 -1.42-1.36z" fill="#fb6771"/><path d="m40 254.78a1.388 1.388 0 0 1 1.42-1.36h6.62a1.394 1.394 0 0 1 -1.42-1.36v-15.81a1.388 1.388 0 0 0 -1.42-1.36h-16.46a1.388 1.388 0 0 0 -1.42 1.36v15.81a1.394 1.394 0 0 1 -1.42 1.36h-8.48a1.388 1.388 0 0 0 -1.42 1.36v61.32h24z" fill="#ff97a1"/><rect fill="#60b0b2" height="20.04" rx="4.45" width="14.08" x="70.72" y="198.81"/><path d="m412.3 181.27h25v72.15h-25z" fill="#c0f9f6"/><path d="m435.95 127.06-25.94 36.13v.08h25v-.08l13.018-18.131z" fill="#ff97a1"/><path d="m402.8 163.27v18h9.5 15.5v-18z" fill="#cafffe"/><rect fill="#60b0b2" height="20.04" rx="4.45" width="14.08" x="427.72" y="198.81"/><path d="m494.58 253.42h-8.48a1.394 1.394 0 0 1 -1.42-1.36v-15.81a1.388 1.388 0 0 0 -1.42-1.36h-16.46a1.388 1.388 0 0 0 -1.42 1.36v15.81a1.394 1.394 0 0 1 -1.42 1.36h-17.14a1.386 1.386 0 0 1 -1.41-1.36v-15.81a1.394 1.394 0 0 0 -1.42-1.36h-17.54a1.388 1.388 0 0 0 -1.42 1.36v15.81a1.394 1.394 0 0 1 -1.42 1.36h-17.8a1.394 1.394 0 0 1 -1.42-1.36v-15.81a1.388 1.388 0 0 0 -1.42-1.36h-17.39a1.388 1.388 0 0 0 -1.42 1.36v15.81a1.394 1.394 0 0 1 -1.42 1.36h-9.48a1.394 1.394 0 0 0 -1.42 1.36l.28 60.32h123.88v-60.32a1.388 1.388 0 0 0 -1.42-1.36z" fill="#fb6771"/><path d="m396.84 254.78a1.394 1.394 0 0 1 1.42-1.36h7.55a1.394 1.394 0 0 1 -1.42-1.36v-15.81a1.388 1.388 0 0 0 -1.42-1.36h-17.39a1.388 1.388 0 0 0 -1.42 1.36v15.81a1.394 1.394 0 0 1 -1.42 1.36h-9.48a1.394 1.394 0 0 0 -1.42 1.36l.28 60.32h25z" fill="#ff97a1"/><path d="m383.56 315.1v.36 155.05h.44l24.56-.005v-155.045-.36z" fill="#cafffe"/><path d="m384 470.51h-.44v25.28h25v-25.28h.44l74.09-.015v-.005z" fill="#ff97a1"/><path d="m233.02 123.27h20v80.97h-20z" fill="#c0f9f6"/><path d="m256.67 69.06-.03.04-25.91 36.09v.08h20v-.08l15.6-21.729z" fill="#ff97a1"/><path d="m223.52 105.27h20v18h-20z" fill="#cafffe"/><path d="m262.52 145.26v11.14a4.447 4.447 0 0 1 -4.45 4.45h-5.19a4.453 4.453 0 0 1 -4.45-4.45v-11.14a4.46 4.46 0 0 1 4.45-4.45h5.19a4.453 4.453 0 0 1 4.45 4.45z" fill="#60b0b2"/><path d="m322.39 184.24h-13.76a3.89 3.89 0 0 0 -3.97 3.81v12.27a3.89 3.89 0 0 1 -3.97 3.81h-9.17a3.882 3.882 0 0 1 -3.96-3.81v-12.27a3.9 3.9 0 0 0 -3.97-3.81h-11.14a3.9 3.9 0 0 0 -3.97 3.81v12.27a3.89 3.89 0 0 1 -3.97 3.81h-10.48a5.431 5.431 0 0 1 -5.43-5.44v-10.64a3.9 3.9 0 0 0 -3.97-3.81h-12.96a3.9 3.9 0 0 0 -3.97 3.81v12.27a3.89 3.89 0 0 1 -3.97 3.81h-11.13a3.884 3.884 0 0 1 -3.97-3.81v-12.27a3.9 3.9 0 0 0 -3.97-3.81h-15.05a3.89 3.89 0 0 0 -3.97 3.84l.56 67.36 140.16-.01v-67.38a3.89 3.89 0 0 0 -3.97-3.81z" fill="#fb6771"/><path d="m207.133 185.094a4.027 4.027 0 0 0 -2.473-.854h-15.05a3.89 3.89 0 0 0 -3.97 3.84l.56 67.36h20l-.56-67.359a3.729 3.729 0 0 1 1.493-2.987z" fill="#ff97a1"/><path d="m230.06 418.989v-1.239c0-16.026 10.748-29.752 26.009-35.506l.011-2.894c-23.2 0-42.02 17.19-42.02 38.4v1.22h.09z" fill="#c69483"/><path d="m230.07 463.82-.01-44.831-15.91-.019h-.09l.01 44.85 16 .077z" fill="#ba8974"/><path d="m230.07 463.897-16-.077.01 31.92v.05h16v-.05z" fill="#c69483"/><g fill="#284268"><path d="m80.353 192.814h-5.187a10.462 10.462 0 0 0 -10.451 10.451v11.135a10.462 10.462 0 0 0 10.451 10.451h5.187a10.462 10.462 0 0 0 10.447-10.451v-11.135a10.462 10.462 0 0 0 -10.447-10.451zm-1.553 20.039h-2.085v-8.039h2.085z"/><path d="m258.071 166.853a10.462 10.462 0 0 0 10.451-10.453v-11.135a10.462 10.462 0 0 0 -10.451-10.451h-5.186a10.462 10.462 0 0 0 -10.451 10.451v11.135a10.462 10.462 0 0 0 10.451 10.451zm-3.637-20.039h2.088v8.039h-2.088z"/><path d="m432.166 224.853h5.187a10.462 10.462 0 0 0 10.447-10.453v-11.135a10.462 10.462 0 0 0 -10.45-10.451h-5.187a10.462 10.462 0 0 0 -10.451 10.451v11.135a10.462 10.462 0 0 0 10.454 10.453zm1.549-20.039h2.085v8.039h-2.088z"/><path d="m240.5 333.357-50.251.027a6 6 0 0 0 0 12l50.25-.027a6 6 0 0 0 0-12z"/><path d="m174.251 333.392h-.024-1a6 6 0 0 0 .023 12h.023 1a6 6 0 0 0 -.023-12z"/><path d="m417.656 355.748h22.737a6 6 0 0 0 6-6v-15.748a6 6 0 0 0 -6-6h-22.737a6 6 0 0 0 -6 6v15.752a6 6 0 0 0 6 5.996zm6-15.752h10.737v3.752h-10.737z"/><path d="m426.546 434.855v15.752a6 6 0 0 0 6 6h22.737a6 6 0 0 0 6-6v-15.752a6 6 0 0 0 -6-6h-22.737a6 6 0 0 0 -6 6zm12 6h10.737v3.752h-10.737z"/><path d="m63.138 356.706h22.737a6 6 0 0 0 6-6v-15.752a6 6 0 0 0 -6-6h-22.737a6 6 0 0 0 -6 6v15.752a6 6 0 0 0 6 6zm6-15.752h10.737v3.752h-10.737z"/><path d="m72.028 427.621v15.752a6 6 0 0 0 6 6h22.737a6 6 0 0 0 6-6v-15.752a6 6 0 0 0 -6-6h-22.737a6 6 0 0 0 -6 6zm12 6h10.737v3.752h-10.737z"/><path d="m494.582 247.418h-3.9v-11.169a7.4 7.4 0 0 0 -7.418-7.362h-16.464a7.408 7.408 0 0 0 -3.89 1.1v-42.722h4.854a6 6 0 0 0 6-6v-18a6 6 0 0 0 -6-6h-4.324l-21.177-31.565v-14.007l35.269-.1a6 6 0 0 0 3.86-10.58l-11.53-9.761 12.386-10.206a6 6 0 0 0 -3.811-10.631l-37.5-.024a6 6 0 0 0 -10.678 3.752v50.547l-23.385 32.575h-4.074a6 6 0 0 0 -6 6v18a6 6 0 0 0 6 6h3.5v42.413a7.418 7.418 0 0 0 -3.327-.791h-17.4a7.4 7.4 0 0 0 -7.418 7.362v11.169h-4.9a7.4 7.4 0 0 0 -7.419 7.389l.108 23.359a7.415 7.415 0 0 0 -4.706-1.677h-17.773a7.4 7.4 0 0 0 -7.418 7.362v10.567h-7.387v-10.567a7.4 7.4 0 0 0 -7.419-7.362h-6.625v-15.055h11.742a6 6 0 0 0 6-6v-67.38a9.9 9.9 0 0 0 -9.968-9.81h-13.765a9.9 9.9 0 0 0 -9.968 9.81v10.076h-5.1v-10.077a9.9 9.9 0 0 0 -9.932-9.808v-48.98h4.854a6 6 0 0 0 6-6v-18a6 6 0 0 0 -6-6h-4.319l-21.515-32.065v-13.5l35.269-.1a6 6 0 0 0 3.86-10.58l-11.53-9.761 12.386-10.211a6 6 0 0 0 -3.811-10.631l-37.5-.024a6 6 0 0 0 -10.678 3.752v51.015l-23.041 32.105h-4.075a6 6 0 0 0 -6 6v18a6 6 0 0 0 6 6h3.5v49.124a9.865 9.865 0 0 0 -8.317 9.664v10.077h-7.075v-10.077a9.9 9.9 0 0 0 -9.968-9.81h-12.059a9.975 9.975 0 0 0 -7.135 2.958 9.669 9.669 0 0 0 -2.833 6.932l.563 67.361a6 6 0 0 0 6 5.95h10.045l.015 15.046h-6.8a7.4 7.4 0 0 0 -7.418 7.362v10.567h-6.679v-10.568a7.4 7.4 0 0 0 -7.418-7.362h-17.072a7.414 7.414 0 0 0 -4.778 1.739l.062-23.433v-.016a7.4 7.4 0 0 0 -7.419-7.361h-4.9v-11.169a7.4 7.4 0 0 0 -7.418-7.362h-17.394a7.412 7.412 0 0 0 -3.122.693v-42.315h4.854a6 6 0 0 0 6-6v-18a6 6 0 0 0 -6-6h-4.319l-21.177-31.565v-14.007l35.269-.1a6 6 0 0 0 3.86-10.58l-11.53-9.761 12.386-10.206a6 6 0 0 0 -3.811-10.631l-37.5-.024a6 6 0 0 0 -10.678 3.752v50.547l-23.381 32.575h-4.078a6 6 0 0 0 -6 6v18a6 6 0 0 0 6 6h3.5v42.851a7.414 7.414 0 0 0 -4.095-1.229h-16.47a7.4 7.4 0 0 0 -7.418 7.362v11.169h-3.9a7.4 7.4 0 0 0 -7.417 7.361v61.321a6 6 0 0 0 6 6h7.046v173.688a6 6 0 0 0 6 6h454.048a6 6 0 0 0 6-6v-174.688h6.906a6 6 0 0 0 6-6v-60.321a7.4 7.4 0 0 0 -7.418-7.361zm-52.319-165.024 19.466.012-2.8 2.309a8.428 8.428 0 0 0 -.084 12.935l2.351 1.99-18.932.053zm-179.618-58 19.466.012-2.8 2.31a8.429 8.429 0 0 0 -.082 12.934l2.351 1.99-18.932.053zm-177.382 58 19.466.012-2.8 2.309a8.428 8.428 0 0 0 -.084 12.935l2.351 1.99-18.932.053zm350.52 55.185 13.207 19.686h-27.34zm-26.983 31.686h52.956v6h-52.956zm42.1 18v46.347a7.423 7.423 0 0 0 -6.918-4.725h-17.536a7.4 7.4 0 0 0 -7.418 7.362v11.169h-.728v-60.153zm-194.4-107.686 13.207 19.686h-27.338zm-26.979 31.686h52.956v6h-52.955zm10.105 66.978h-.608v-48.978h32.605v49.019a9.883 9.883 0 0 0 -9.143 9.769v10.077h-12.88v-10.077a9.9 9.9 0 0 0 -9.973-9.81zm-47.476 71.2-.5-59.2h7.971v10.078a9.9 9.9 0 0 0 9.968 9.809h11.138a9.9 9.9 0 0 0 9.969-9.809v-10.078h6.904v8.449a11.452 11.452 0 0 0 11.439 11.438h15.479a9.9 9.9 0 0 0 9.968-9.809v-10.078h7.075v10.078a9.9 9.9 0 0 0 9.968 9.809h9.164a9.9 9.9 0 0 0 9.969-9.809v-10.078h9.705v59.191zm89.75 27.333h-13.923a8.312 8.312 0 0 0 -8.31 8.342l.04 10.395h-6.3v-11.662a7.4 7.4 0 0 0 -7.418-7.362h-16.667a7.4 7.4 0 0 0 -7.418 7.362v10.567h-6.004v-10.567a7.4 7.4 0 0 0 -7.418-7.362h-.217l-.015-15.047 94.374-.007v15.133a7.384 7.384 0 0 0 -6.4 7.283v10.567h-6.007v-9.332a8.32 8.32 0 0 0 -8.317-8.31zm-203.12-139.2 13.21 19.689h-27.34zm-26.98 31.689h52.956v6h-52.956zm33.751 59.622h-17.538a7.424 7.424 0 0 0 -6.713 4.249v-45.871h32.605v60.153h-.933v-11.169a7.4 7.4 0 0 0 -7.418-7.362zm37.023 260.9h-87.528v-13.487l87.531.267zm0-96.439h-6.642v-3.753h6.642zm0-15.755h-11.221a7.4 7.4 0 0 0 -7.418 7.361v13.03a7.4 7.4 0 0 0 7.416 7.361h11.226v59.217l-87.531-.262v-63.76h11.123a7.4 7.4 0 0 0 7.418-7.361v-13.03a7.4 7.4 0 0 0 -7.418-7.361h-11.123v-50.688h87.531zm-87.528 10.947v-3.752h6.541v3.752zm98.965-78.44h-112.011v-50.682h3.9a7.4 7.4 0 0 0 7.418-7.361v-11.17h7.306v11.17a7.4 7.4 0 0 0 7.418 7.361h17.134a7.4 7.4 0 0 0 7.418-7.361v-11.17h8.378v11.17a7.4 7.4 0 0 0 7.418 7.361h17.8a7.4 7.4 0 0 0 7.418-7.361v-11.17h8.231v11.17a7.4 7.4 0 0 0 7.418 7.361h4.888zm115.663 179.688h-29.6v-19.934l29.674.143zm.118-31.788-29.721-.144-.007-32.873 29.85.039zm.166-44.978-29.5-.038c2.28-13.837 14.32-24.844 29.6-27.169zm42.091 76.769h-30.374l.073-19.732 30.316.146zm.024-31.586-30.281-.147.122-33.021 30.184.039zm-30.115-45.168.1-27.23c15.339 2.315 27.42 13.375 29.664 27.268zm42.091 76.754.054-72.036c0-24.471-21.521-44.381-47.982-44.4h-.039c-26.478 0-48.02 19.919-48.02 44.4l.016 72.034h-4.6l.023-70.664c0-27.658 23.555-50.158 52.507-50.158s52.507 22.5 52.507 50.158v70.664zm73.515-156.533-119.818.091a6 6 0 0 0 0 12l119.809-.091v144.53h-57.034v-70.664c0-34.274-28.938-62.158-64.507-62.158s-64.514 27.884-64.514 62.156l-.023 70.666h-56.9v-144.368l23.423-.02a6 6 0 0 0 0-12l-23.418.017v-11.317h5.418a6 6 0 0 0 6-5.984l.025-9.695h2.017a7.4 7.4 0 0 0 7.418-7.361v-10.571h7.905v10.568a7.4 7.4 0 0 0 7.419 7.361h15.842a7.4 7.4 0 0 0 7.418-7.361v-10.568h9.856v10.568a7.4 7.4 0 0 0 7.418 7.361h15.171a7.4 7.4 0 0 0 7.418-7.361v-10.568h7.5v11.663a7.4 7.4 0 0 0 7.418 7.361h15.483a7.394 7.394 0 0 0 5.276-2.186 7.288 7.288 0 0 0 2.142-5.2l-.044-11.348h6.532v10.281a7.4 7.4 0 0 0 7.418 7.361h15.168a7.4 7.4 0 0 0 7.418-7.361v-10.571h8.44v10.568a7.4 7.4 0 0 0 7.418 7.361h16.551a7.4 7.4 0 0 0 7.418-7.361v-10.568h8.615v10.568a7.4 7.4 0 0 0 7.418 7.361h2l.041 8.707a6 6 0 0 0 6 5.972h5.442zm99.53 156.533h-87.53v-13.282l87.53-.014zm0-89.2h-6.642v-3.754h6.642zm0-15.755h-11.223a7.4 7.4 0 0 0 -7.419 7.361v13.03a7.4 7.4 0 0 0 7.417 7.361h11.225v51.912l-87.53.014v-58.74h11.123a7.4 7.4 0 0 0 7.418-7.361v-14.029a7.4 7.4 0 0 0 -7.418-7.362h-11.123v-55.922h87.53zm-87.53 8.946v-4.752h6.541v4.752zm100.436-84.682h-111.906l-.23-49.679h4.878a7.4 7.4 0 0 0 7.418-7.361v-11.17h8.231v11.17a7.4 7.4 0 0 0 7.418 7.361h17.8a7.4 7.4 0 0 0 7.418-7.361v-11.17h8.378v11.17a7.4 7.4 0 0 0 7.418 7.361h17.135a7.4 7.4 0 0 0 7.418-7.361v-11.17h7.306v11.17a7.4 7.4 0 0 0 7.418 7.361h3.9z"/></g></svg>