<svg id="Capa_1" enable-background="new 0 0 512 512" height="512" viewBox="0 0 512 512" width="512" xmlns="http://www.w3.org/2000/svg"><g><path d="m478.273 166.154h-96.994l-95.496-95.486c-16.421-16.423-43.143-16.422-59.566 0l-95.496 95.487h-96.994c-18.597-.001-33.727 15.128-33.727 33.725v220.043c0 18.597 15.13 33.727 33.727 33.727h357.946c4.143 0 7.5-3.358 7.5-7.5s-3.357-7.5-7.5-7.5h-329.534c-10.326 0-18.727-8.401-18.727-18.727v-162.331c0-4.142-3.358-7.5-7.5-7.5s-7.5 3.358-7.5 7.5v162.332c0 6.924 2.1 13.366 5.693 18.727h-.378c-10.326-.001-18.727-8.402-18.727-18.728v-220.043c0-10.326 8.401-18.727 18.727-18.727h.378c-3.593 5.361-5.693 11.802-5.693 18.727v22.234c0 4.142 3.358 7.5 7.5 7.5s7.5-3.358 7.5-7.5v-22.234c0-10.326 8.401-18.727 18.727-18.727h387.722c10.326 0 18.727 8.401 18.727 18.727v220.043c0 10.326-8.4 18.727-18.727 18.727h-22.031c-4.143 0-7.5 3.358-7.5 7.5s3.357 7.5 7.5 7.5h50.443c18.597 0 33.727-15.13 33.727-33.727v-220.043c0-18.597-15.13-33.726-33.727-33.726zm-241.45-84.88c10.574-10.575 27.779-10.573 38.354 0l84.887 84.879h-208.13zm260.177 338.649c0 10.326-8.4 18.727-18.727 18.727h-.378c3.593-5.361 5.693-11.802 5.693-18.727v-220.043c0-6.924-2.1-13.366-5.693-18.727h.378c10.326 0 18.727 8.401 18.727 18.727z"/><circle cx="256" cy="98.885" r="8.322"/><path d="m352.897 239.104c-3.133.977-5.268 3.878-5.268 7.16v89.442c0 4.142 3.357 7.5 7.5 7.5s7.5-3.358 7.5-7.5v-65.383l46.804 67.775c2.352 3.397 6.219 4.858 9.841 3.726 3.734-1.167 6.147-4.753 6.147-9.21l-.837-86.59c-.04-4.118-3.39-7.428-7.498-7.428-.024 0-.05 0-.074 0-4.143.04-7.468 3.43-7.428 7.572l.646 66.686-48.929-70.852c-1.864-2.701-5.267-3.874-8.404-2.898z"/><path d="m327.03 254.006c4.143 0 7.5-3.358 7.5-7.5s-3.357-7.5-7.5-7.5h-37.413c-4.143 0-7.5 3.358-7.5 7.5v88.791c0 4.142 3.357 7.5 7.5 7.5h37.413c4.143 0 7.5-3.358 7.5-7.5s-3.357-7.5-7.5-7.5h-29.913v-29.396h27.154c4.143 0 7.5-3.358 7.5-7.5s-3.357-7.5-7.5-7.5h-27.154v-29.396h29.913z"/><path d="m219.188 335.706v-31.464c5.757-.032 13.464-.069 17.451-.069 18.353 0 33.283-14.708 33.283-32.788s-14.931-32.788-33.283-32.788h-24.951c-3.697-.078-7.653 3.276-7.5 7.5v89.609c0 4.142 3.358 7.5 7.5 7.5s7.5-3.358 7.5-7.5zm17.452-82.109c9.911 0 18.283 8.146 18.283 17.788s-8.373 17.788-18.283 17.788c-3.967 0-11.568.037-17.32.068-.032-5.911-.069-13.807-.069-17.856 0-3.42-.021-11.638-.04-17.788z"/><path d="m191.187 290.902c0-28.841-23.464-52.305-52.305-52.305s-52.305 23.464-52.305 52.305 23.464 52.305 52.305 52.305 52.305-23.465 52.305-52.305zm-52.305 37.304c-20.57 0-37.305-16.735-37.305-37.305s16.735-37.305 37.305-37.305 37.305 16.735 37.305 37.305-16.735 37.305-37.305 37.305z"/><path d="m414.619 388.101h-210.62c-4.142 0-7.5 3.358-7.5 7.5s3.358 7.5 7.5 7.5h210.621c4.143 0 7.5-3.358 7.5-7.5s-3.358-7.5-7.501-7.5z"/><path d="m94.078 366.551c-4.142 0-7.5 3.358-7.5 7.5v27.943c0 4.142 3.358 7.5 7.5 7.5h69.069c4.142 0 7.5-3.358 7.5-7.5v-27.943c0-4.142-3.358-7.5-7.5-7.5zm61.568 27.942h-54.069v-12.943h54.069z"/></g></svg>