<?xml version="1.0" encoding="utf-8"?>
<!-- Generator: Adobe Illustrator 24.1.0, SVG Export Plug-In . SVG Version: 6.00 Build 0)  -->
<svg version="1.1" id="Layer_1" xmlns="http://www.w3.org/2000/svg" xmlns:xlink="http://www.w3.org/1999/xlink" x="0px" y="0px"
	 viewBox="0 0 726 521" style="enable-background:new 0 0 726 521;" xml:space="preserve">
<style type="text/css">
	.st0{fill:none;}
	.st1{fill:#737373;stroke:#FFFFFF;stroke-miterlimit:10;}
	.st2{fill:#1BA1E2;fill-opacity:0.4;stroke:#006EAF;stroke-opacity:0.4;}
	.st3{fill:#FFFFFF;}
</style>
<path class="st0" d="z"/>
<path class="st0" d="z"/>
<g>
	
		<image style="overflow:visible;enable-background:new    ;" width="520" height="373" xlink:href="806419FE760F09B4.png"  transform="matrix(1.3941 0 0 1.3941 9.999990e-03 1.682073e-05)">
	</image>
	<path pointer-events="all" class="st1" d="M347.9,175c-0.9,0-1.7-1.1-1.7-2.5v-7.4c1.4,0,2.5-1.7,2.5-3.7c0-2-1.1-3.7-2.5-3.7v-7.4
		c0-1.4,0.8-2.5,1.7-2.5H378c0.9,0,1.7,1.1,1.7,2.5v7.4c-1.4,0-2.5,1.7-2.5,3.7c0,2.1,1.1,3.7,2.5,3.7v7.4c0,1.4-0.8,2.5-1.7,2.5
		c-1.9-0.1-28.8,0.2-28.8,0.2L347.9,175z M363,156.1l-1,4h-2.9l2.3,2.4l-1,4.1l2.5-2.5l2.5,2.5l-0.9-4.1l2.3-2.4H364L363,156.1z"/>
	<path pointer-events="all" class="st1" d="M347.9,87.7c-0.9,0-1.7-1.1-1.7-2.5v-7.4c1.4,0,2.5-1.7,2.5-3.7c0-2-1.1-3.7-2.5-3.7V63
		c0-1.4,0.8-2.5,1.7-2.5H378c0.9,0,1.7,1.1,1.7,2.5v7.4c-1.4,0-2.5,1.7-2.5,3.7c0,2.1,1.1,3.7,2.5,3.7v7.4c0,1.4-0.8,2.5-1.7,2.5
		c-1.9-0.1-28.8,0.2-28.8,0.2L347.9,87.7z M363,68.8l-1,4h-2.9l2.3,2.4l-1,4.1l2.5-2.5l2.5,2.5l-0.9-4.1l2.3-2.4H364L363,68.8z"/>
	<path pointer-events="all" class="st1" d="M182.2,334.7c-0.4,0-0.9-0.3-1.2-0.7c-0.3-0.5-0.5-1.1-0.5-1.8v-7.4
		c1.4,0,2.5-1.7,2.5-3.7c0-2-1.1-3.7-2.5-3.7V310c0-0.6,0.2-1.3,0.5-1.8c0.3-0.5,0.7-0.7,1.2-0.7h30.1c0.4,0,0.9,0.3,1.2,0.7
		c0.3,0.5,0.5,1.1,0.5,1.8v7.4c-1.4,0-2.5,1.7-2.5,3.7c0,2.1,1.1,3.7,2.5,3.7v7.4c0,0.7-0.2,1.3-0.5,1.8c-0.3,0.5-0.7,0.7-1.2,0.7
		c-1.9-0.1-28.8,0.2-28.8,0.2L182.2,334.7z M197.3,315.8l-1,4h-2.9l2.3,2.4l-1,4l2.5-2.5l2.5,2.5l-0.9-4l2.3-2.4h-2.8L197.3,315.8z"
		/>
	<path pointer-events="all" class="st1" d="M522.2,326.3c-0.9,0-1.7-1.1-1.7-2.5v-7.4c1.4,0,2.5-1.7,2.5-3.7c0-2-1.1-3.7-2.5-3.7
		v-7.4c0-1.4,0.8-2.5,1.7-2.5h30.1c0.9,0,1.7,1.1,1.7,2.5v7.4c-1.4,0-2.5,1.7-2.5,3.7c0,2.1,1.1,3.7,2.5,3.7v7.4
		c0,1.4-0.8,2.5-1.7,2.5c-1.9-0.1-28.8,0.2-28.8,0.2L522.2,326.3z M537.3,307.4l-1,4h-2.8l2.3,2.4l-1,4l2.5-2.5l2.5,2.5l-0.9-4
		l2.3-2.4h-2.8L537.3,307.4z"/>
	<path pointer-events="all" class="st1" d="M512.2,194c-0.9,0-1.7-1.1-1.7-2.5v-7.4c1.4,0,2.5-1.7,2.5-3.7c0-2-1.1-3.7-2.5-3.7v-7.4
		c0-1.4,0.8-2.5,1.7-2.5h30.1c0.9,0,1.7,1.1,1.7,2.5v7.4c-1.4,0-2.5,1.7-2.5,3.7c0,2.1,1.1,3.7,2.5,3.7v7.4c0,1.4-0.8,2.5-1.7,2.5
		c-1.9-0.1-28.8,0.2-28.8,0.2L512.2,194z M527.3,175.1l-1,4h-2.8l2.3,2.4l-1,4.1l2.5-2.5l2.5,2.5l-0.9-4.1l2.3-2.4h-2.8L527.3,175.1
		z"/>
	<path pointer-events="all" class="st1" d="M182.2,190.3c-0.4,0-0.9-0.3-1.2-0.7c-0.3-0.5-0.5-1.1-0.5-1.8v-7.4
		c1.4,0,2.5-1.7,2.5-3.7c0-2.1-1.1-3.7-2.5-3.7v-7.4c0-0.6,0.2-1.3,0.5-1.8c0.3-0.5,0.7-0.7,1.2-0.7h30.1c0.4,0,0.9,0.3,1.2,0.7
		c0.3,0.5,0.5,1.1,0.5,1.8v7.4c-1.4,0-2.5,1.7-2.5,3.7c0,2,1.1,3.7,2.5,3.7v7.4c0,0.7-0.2,1.3-0.5,1.8c-0.3,0.5-0.7,0.7-1.2,0.7
		c-1.9-0.1-28.8,0.2-28.8,0.2L182.2,190.3z M197.3,171.4l-1,4h-2.9l2.3,2.4l-1,4.1l2.5-2.5l2.5,2.5l-0.9-4.1l2.3-2.4h-2.8
		L197.3,171.4z"/>
	<ellipse pointer-events="all" class="st2" cx="197.2" cy="321.2" rx="40" ry="40"/>
	<ellipse pointer-events="all" class="st2" cx="537.2" cy="312.8" rx="40" ry="40"/>
	<ellipse pointer-events="all" class="st2" cx="527.2" cy="176.8" rx="40" ry="40"/>
	<ellipse pointer-events="all" class="st2" cx="363" cy="74.2" rx="40" ry="40"/>
	<ellipse pointer-events="all" class="st2" cx="363" cy="162.5" rx="40" ry="40"/>
	<ellipse pointer-events="all" class="st2" cx="197.2" cy="176.8" rx="40" ry="40"/>
	<g>
		<path d="M276.2,76.8h-14.4c-2.2,0-3.9-1.8-3.9-3.9V58.4c0-2.2,1.8-3.9,3.9-3.9h14.4c2.2,0,3.9,1.8,3.9,3.9v14.4
			C280.1,75,278.4,76.8,276.2,76.8z"/>
		<g>
			<path pointer-events="all" class="st3" d="M270.2,73.6c0,0.4,0.3,0.8,0.7,0.8c0.4,0,0.7-0.4,0.7-0.8l0.1-15.8
				c0-0.8-0.4-0.9-0.7-0.9c-0.3,0-0.9,1-1,1.9c-0.1,0.9-0.9,5.7,0.3,6.6L270.2,73.6L270.2,73.6L270.2,73.6z"/>
			<path pointer-events="all" class="st3" d="M267,73.5l0.1-10.2c-0.5,0-0.7-0.7-0.8-1.2l0.3-5.3l0.4,4.2l0.4-4.2l0.4,4.2l0.5-4.2
				l0.3,4.2L269,57l0.2,5.3c-0.1,0.5-0.3,1.2-0.8,1.2l-0.1,10.2c0,0.4-0.3,0.8-0.7,0.8C267.3,74.3,267,74,267,73.5L267,73.5
				L267,73.5z"/>
		</g>
	</g>
	<g>
		<path d="M468.4,303.5h-14.4c-2.2,0-3.9-1.8-3.9-3.9v-14.4c0-2.2,1.8-3.9,3.9-3.9h14.4c2.2,0,3.9,1.8,3.9,3.9v14.4
			C472.3,301.7,470.5,303.5,468.4,303.5z"/>
		<g>
			<path pointer-events="all" class="st3" d="M462.4,300.2c0,0.4,0.3,0.8,0.7,0.8c0.4,0,0.7-0.4,0.7-0.8l0.1-15.8
				c0-0.8-0.4-0.9-0.7-0.9c-0.3,0-0.9,1-1,1.9c-0.1,0.9-0.9,5.7,0.3,6.6L462.4,300.2L462.4,300.2L462.4,300.2z"/>
			<path pointer-events="all" class="st3" d="M459.2,300.2l0.1-10.2c-0.5,0-0.7-0.7-0.8-1.2l0.3-5.3l0.4,4.2l0.4-4.2l0.4,4.2
				l0.5-4.2l0.3,4.2l0.5-4.2l0.2,5.3c-0.1,0.5-0.3,1.2-0.8,1.2l-0.1,10.2c0,0.4-0.3,0.8-0.7,0.8C459.5,301,459.2,300.7,459.2,300.2
				L459.2,300.2L459.2,300.2z"/>
		</g>
	</g>
	<g>
		<path d="M268.8,303.5h-14.4c-2.2,0-3.9-1.8-3.9-3.9v-14.4c0-2.2,1.8-3.9,3.9-3.9h14.4c2.2,0,3.9,1.8,3.9,3.9v14.4
			C272.7,301.7,271,303.5,268.8,303.5z"/>
		<g>
			<path pointer-events="all" class="st3" d="M262.8,300.2c0,0.4,0.3,0.8,0.7,0.8c0.4,0,0.7-0.4,0.7-0.8l0.1-15.8
				c0-0.8-0.4-0.9-0.7-0.9c-0.3,0-0.9,1-1,1.9c-0.1,0.9-0.9,5.7,0.3,6.6L262.8,300.2L262.8,300.2L262.8,300.2z"/>
			<path pointer-events="all" class="st3" d="M259.6,300.2l0.1-10.2c-0.5,0-0.7-0.7-0.8-1.2l0.3-5.3l0.4,4.2l0.4-4.2l0.4,4.2
				l0.5-4.2l0.3,4.2l0.5-4.2l0.2,5.3c-0.1,0.5-0.3,1.2-0.8,1.2l-0.1,10.2c0,0.4-0.3,0.8-0.7,0.8C259.9,301,259.6,300.6,259.6,300.2
				L259.6,300.2L259.6,300.2z"/>
		</g>
	</g>
	<g>
		<path d="M462.1,76.8h-14.4c-2.2,0-3.9-1.8-3.9-3.9V58.4c0-2.2,1.8-3.9,3.9-3.9h14.4c2.2,0,3.9,1.8,3.9,3.9v14.4
			C466,75,464.2,76.8,462.1,76.8z"/>
		<g>
			<g>
				<g>
					<path class="st3" d="M451.4,61c-1.7,0-1.8,0-3.2,0c-0.8,0-1.4,0.6-1.4,1.4l0,4.4c0,0.3,0.3,0.6,0.6,0.6c0,0,0,0,0,0
						c0.3,0,0.6-0.3,0.6-0.6l0-4.4c0,0,0,0,0,0c0-0.1,0.1-0.1,0.1-0.1s0.1,0.1,0.1,0.1l0,10.1c0,0.4,0.3,0.7,0.7,0.7
						c0.4,0,0.7-0.3,0.7-0.7v-5.8h0.3v5.8c0,0.4,0.3,0.7,0.7,0.7c0.4,0,0.7-0.3,0.7-0.7c0-9.5,0-4.1,0-10.1c0-0.1,0.1-0.1,0.1-0.1
						c0.1,0,0.1,0,0.1,0.1c0,0,0,0,0,0l0,4.4c0,0.3,0.3,0.6,0.6,0.6c0,0,0,0,0,0c0.3,0,0.6-0.3,0.6-0.6l0-4.4c0,0,0,0,0,0
						C452.8,61.6,452.1,61,451.4,61z"/>
				</g>
			</g>
			<g>
				<g>
					<circle class="st3" cx="449.7" cy="59.3" r="1.2"/>
				</g>
			</g>
			<g>
				<g>
					<path class="st3" d="M463,65.9c0,0-1.1-3.1-1.3-3.6c-0.3-0.8-0.7-1.2-1.4-1.2c-0.9,0-1.2,0-2.1,0c-0.6,0-1.1,0.4-1.4,1.2
						c-0.2,0.5-1.3,3.6-1.3,3.6c-0.1,0.3,0.1,0.7,0.4,0.8c0.3,0.1,0.7-0.1,0.8-0.4c0-0.1,0.7-1.9,1.1-3c0,0.3,0.1-0.3-0.9,4.4
						c0,0.2,0.1,0.4,0.3,0.4c0.1,0,0.3,0,0.5,0v4.3c0,0.4,0.3,0.7,0.7,0.7c0.4,0,0.7-0.3,0.7-0.7v-4.3c0.1,0,0.2,0,0.3,0v4.3
						c0,0.4,0.3,0.7,0.7,0.7s0.7-0.3,0.7-0.7v-4.3c0.2,0,0.3,0,0.5,0c0.2,0,0.4-0.2,0.3-0.4c-0.9-4.7-0.8-4.2-0.8-4.4
						c0.4,1.1,1,2.9,1,3c0.1,0.3,0.4,0.5,0.8,0.4C462.9,66.5,463.1,66.2,463,65.9z"/>
				</g>
			</g>
			<g>
				<g>
					<circle class="st3" cx="459.3" cy="59.4" r="1.2"/>
				</g>
			</g>
			<g>
				<g>
					<path class="st3" d="M454.3,58.9c-0.3,0-0.5,0.2-0.5,0.5v12.6c0,0.3,0.2,0.5,0.5,0.5s0.5-0.2,0.5-0.5V59.3
						C454.8,59.1,454.6,58.9,454.3,58.9z"/>
				</g>
			</g>
		</g>
	</g>
	<g>
		<path d="M268.9,251.9h-14.4c-2.2,0-3.9-1.8-3.9-3.9v-14.4c0-2.2,1.8-3.9,3.9-3.9h14.4c2.2,0,3.9,1.8,3.9,3.9V248
			C272.8,250.1,271.1,251.9,268.9,251.9z"/>
		<g>
			<g>
				<g>
					<path class="st3" d="M258.2,236.1c-1.7,0-1.8,0-3.2,0c-0.8,0-1.4,0.6-1.4,1.4l0,4.4c0,0.3,0.3,0.6,0.6,0.6c0,0,0,0,0,0
						c0.3,0,0.6-0.3,0.6-0.6l0-4.4c0,0,0,0,0,0c0-0.1,0.1-0.1,0.1-0.1s0.1,0.1,0.1,0.1l0,10.1c0,0.4,0.3,0.7,0.7,0.7
						c0.4,0,0.7-0.3,0.7-0.7v-5.8h0.3v5.8c0,0.4,0.3,0.7,0.7,0.7c0.4,0,0.7-0.3,0.7-0.7c0-9.5,0-4.1,0-10.1c0-0.1,0.1-0.1,0.1-0.1
						c0.1,0,0.1,0,0.1,0.1c0,0,0,0,0,0l0,4.4c0,0.3,0.3,0.6,0.6,0.6c0,0,0,0,0,0c0.3,0,0.6-0.3,0.6-0.6l0-4.4c0,0,0,0,0,0
						C259.6,236.7,259,236.1,258.2,236.1z"/>
				</g>
			</g>
			<g>
				<g>
					<circle class="st3" cx="256.6" cy="234.4" r="1.2"/>
				</g>
			</g>
			<g>
				<g>
					<path class="st3" d="M269.8,241c0,0-1.1-3.1-1.3-3.6c-0.3-0.8-0.7-1.2-1.4-1.2c-0.9,0-1.2,0-2.1,0c-0.6,0-1.1,0.4-1.4,1.2
						c-0.2,0.5-1.3,3.6-1.3,3.6c-0.1,0.3,0.1,0.7,0.4,0.8c0.3,0.1,0.7-0.1,0.8-0.4c0-0.1,0.7-1.9,1.1-3c0,0.3,0.1-0.3-0.9,4.4
						c0,0.2,0.1,0.4,0.3,0.4c0.1,0,0.3,0,0.5,0v4.3c0,0.4,0.3,0.7,0.7,0.7c0.4,0,0.7-0.3,0.7-0.7v-4.3c0.1,0,0.2,0,0.3,0v4.3
						c0,0.4,0.3,0.7,0.7,0.7s0.7-0.3,0.7-0.7v-4.3c0.2,0,0.3,0,0.5,0c0.2,0,0.4-0.2,0.3-0.4c-0.9-4.7-0.8-4.2-0.8-4.4
						c0.4,1.1,1,2.9,1,3c0.1,0.3,0.4,0.5,0.8,0.4C269.7,241.6,269.9,241.3,269.8,241z"/>
				</g>
			</g>
			<g>
				<g>
					<circle class="st3" cx="266.1" cy="234.5" r="1.2"/>
				</g>
			</g>
			<g>
				<g>
					<path class="st3" d="M261.2,234c-0.3,0-0.5,0.2-0.5,0.5v12.6c0,0.3,0.2,0.5,0.5,0.5c0.3,0,0.5-0.2,0.5-0.5v-12.6
						C261.6,234.2,261.4,234,261.2,234z"/>
				</g>
			</g>
		</g>
	</g>
	<g>
		<path d="M420.8,355h-14.4c-2.2,0-3.9-1.8-3.9-3.9v-14.4c0-2.2,1.8-3.9,3.9-3.9h14.4c2.2,0,3.9,1.8,3.9,3.9v14.4
			C424.7,353.2,422.9,355,420.8,355z"/>
		<g>
			<g>
				<g>
					<path class="st3" d="M410.1,339.2c-1.7,0-1.8,0-3.2,0c-0.8,0-1.4,0.6-1.4,1.4l0,4.4c0,0.3,0.3,0.6,0.6,0.6c0,0,0,0,0,0
						c0.3,0,0.6-0.3,0.6-0.6l0-4.4c0,0,0,0,0,0c0-0.1,0.1-0.1,0.1-0.1c0.1,0,0.1,0.1,0.1,0.1l0,10.1c0,0.4,0.3,0.7,0.7,0.7
						c0.4,0,0.7-0.3,0.7-0.7v-5.8h0.3v5.8c0,0.4,0.3,0.7,0.7,0.7c0.4,0,0.7-0.3,0.7-0.7c0-9.5,0-4.1,0-10.1c0-0.1,0.1-0.1,0.1-0.1
						c0.1,0,0.1,0,0.1,0.1c0,0,0,0,0,0l0,4.4c0,0.3,0.3,0.6,0.6,0.6c0,0,0,0,0,0c0.3,0,0.6-0.3,0.6-0.6l0-4.4c0,0,0,0,0,0
						C411.5,339.8,410.8,339.2,410.1,339.2z"/>
				</g>
			</g>
			<g>
				<g>
					<circle class="st3" cx="408.4" cy="337.5" r="1.2"/>
				</g>
			</g>
			<g>
				<g>
					<path class="st3" d="M421.7,344.1c0,0-1.1-3.1-1.3-3.6c-0.3-0.8-0.7-1.2-1.4-1.2c-0.9,0-1.2,0-2.1,0c-0.6,0-1.1,0.4-1.4,1.2
						c-0.2,0.5-1.3,3.6-1.3,3.6c-0.1,0.3,0.1,0.7,0.4,0.8c0.3,0.1,0.7-0.1,0.8-0.4c0-0.1,0.7-1.9,1.1-3c0,0.3,0.1-0.3-0.9,4.4
						c0,0.2,0.1,0.4,0.3,0.4c0.1,0,0.3,0,0.5,0v4.3c0,0.4,0.3,0.7,0.7,0.7c0.4,0,0.7-0.3,0.7-0.7v-4.3c0.1,0,0.2,0,0.3,0v4.3
						c0,0.4,0.3,0.7,0.7,0.7s0.7-0.3,0.7-0.7v-4.3c0.2,0,0.3,0,0.5,0c0.2,0,0.4-0.2,0.3-0.4c-0.9-4.7-0.8-4.2-0.8-4.4
						c0.4,1.1,1,2.9,1,3c0.1,0.3,0.4,0.5,0.8,0.4C421.6,344.7,421.8,344.4,421.7,344.1z"/>
				</g>
			</g>
			<g>
				<g>
					<circle class="st3" cx="418" cy="337.6" r="1.2"/>
				</g>
			</g>
			<g>
				<g>
					<path class="st3" d="M413,337.1c-0.3,0-0.5,0.2-0.5,0.5v12.6c0,0.3,0.2,0.5,0.5,0.5s0.5-0.2,0.5-0.5v-12.6
						C413.5,337.3,413.3,337.1,413,337.1z"/>
				</g>
			</g>
		</g>
	</g>
	<g>
		<path d="M317.2,355h-14.4c-2.2,0-3.9-1.8-3.9-3.9v-14.4c0-2.2,1.8-3.9,3.9-3.9h14.4c2.2,0,3.9,1.8,3.9,3.9v14.4
			C321.1,353.2,319.4,355,317.2,355z"/>
		<path pointer-events="all" class="st3" d="M305.4,339.6c0.8,0,1.4-0.5,1.4-1.1c0-0.6-0.6-1.1-1.4-1.1c-0.8,0-1.4,0.5-1.4,1.1
			C304,339.1,304.6,339.6,305.4,339.6L305.4,339.6z M301.6,343.5h1.3l0.8-2.2h0.3l-0.8,2.2h4.5l-0.8-2.2h0.3l0.4,1.1
			c0.2,0.4,0.7,0.6,1.1,0.2l1.5-1.4c0.5-0.5-0.4-1-0.9-0.6l-0.9,0.8c0,0-0.2-0.5-0.2-0.5c-0.2-0.6-0.9-1.1-1.9-1.1h-2
			c-0.9,0-1.7,0.6-1.8,1L301.6,343.5L301.6,343.5z M311.1,340.6v-2.2h-1.3v2.2H311.1z M315.5,339.6c0.8,0,1.4-0.5,1.4-1.1
			c0-0.6-0.6-1.1-1.4-1.1c-0.8,0-1.4,0.5-1.4,1.1C314,339.1,314.7,339.6,315.5,339.6L315.5,339.6z M317.3,350.1V344h1.1v-3.4
			c0-0.4-0.5-0.8-1.2-0.8h-3.4c-0.7,0-0.8,0.2-1,0.3l-2.8,2.6c-0.6,0.6,0.4,1.2,1,0.7l2.7-2.5v9.2c0,0.9,1.7,1,1.7,0v-5.2h0.3v5.2
			C315.6,351.1,317.3,351.1,317.3,350.1L317.3,350.1z M319.1,345.1v-1.3h-18.3v1.3H319.1z"/>
	</g>
	<g>
		<path d="M392.1,378.7h-14.4c-2.2,0-3.9-1.8-3.9-3.9v-14.4c0-2.2,1.8-3.9,3.9-3.9h14.4c2.2,0,3.9,1.8,3.9,3.9v14.4
			C396,376.9,394.3,378.7,392.1,378.7z"/>
		<path pointer-events="all" class="st3" d="M384.9,360.1c-3.9,0-7.1,3.3-7.1,7.4c0,4.1,3.2,7.5,7.1,7.5s7.1-3.3,7.1-7.5
			C392,363.4,388.8,360.1,384.9,360.1z M384.9,373.3c-3,0-5.4-2.6-5.4-5.7c0-3.2,2.4-5.7,5.4-5.7s5.4,2.6,5.4,5.7
			C390.3,370.7,387.9,373.3,384.9,373.3z M384.2,370.2l1.6,0v-1.3c0-0.4,0.2-0.7,0.6-1c0.4-0.3,1.6-0.9,1.6-2.4
			c0-1.6-1.2-2.6-2.3-2.8c-1-0.2-2.2-0.1-3,0.8c-0.7,0.8-0.9,1.5-0.9,2.9h1.6V366c0-0.8,0.1-1.6,1.1-1.8c0.6-0.1,1.1,0.1,1.4,0.4
			c0.4,0.4,0.4,1.2-0.2,1.6l-0.9,0.6c-0.5,0.4-0.7,0.8-0.7,1.3V370.2L384.2,370.2z M384.1,372.6v-1.7h1.6v1.7H384.1z"/>
	</g>
</g>
</svg>
